HIERARCHY
ROOT Hips
{
	OFFSET 0.000000 97.420761 0.000000
	CHANNELS 6 Xposition Yposition Zposition Xrotation Yrotation Zrotation
	JOINT RightUpLeg
	{
		OFFSET -8.571318 0.002251 -0.000250
		CHANNELS 6 Xposition Yposition Zposition Xrotation Yrotation Zrotation
		JOINT RightLeg
		{
			OFFSET 0.000000 -44.326080 -0.000105
			CHANNELS 6 Xposition Yposition Zposition Xrotation Yrotation Zrotation
			JOINT RightFoot
			{
				OFFSET 0.000000 -43.324329 -0.000176
				CHANNELS 6 Xposition Yposition Zposition Xrotation Yrotation Zrotation
				JOINT RightToeBase
				{
					OFFSET 0.000000 -7.938133 18.050686
					CHANNELS 6 Xposition Yposition Zposition Xrotation Yrotation Zrotation
					End Site
					{
						OFFSET 0.000000 0.000000 19.719055
					}
				}
			}
		}
	}
	JOINT LeftUpLeg
	{
		OFFSET 8.571318 -0.000084 0.000009
		CHANNELS 6 Xposition Yposition Zposition Xrotation Yrotation Zrotation
		JOINT LeftLeg
		{
			OFFSET 0.000000 -44.326080 -0.000105
			CHANNELS 6 Xposition Yposition Zposition Xrotation Yrotation Zrotation
			JOINT LeftFoot
			{
				OFFSET 0.000000 -43.324329 -0.000176
				CHANNELS 6 Xposition Yposition Zposition Xrotation Yrotation Zrotation
				JOINT LeftToeBase
				{
					OFFSET 0.000000 -7.938133 18.050686
					CHANNELS 6 Xposition Yposition Zposition Xrotation Yrotation Zrotation
					End Site
					{
						OFFSET 0.000000 0.000000 19.719055
					}
				}
			}
		}
	}
	JOINT Spine
	{
		OFFSET 0.000000 10.422829 -1.158092
		CHANNELS 6 Xposition Yposition Zposition Xrotation Yrotation Zrotation
		JOINT Spine1
		{
			OFFSET 0.000000 11.587624 0.000000
			CHANNELS 3 Xrotation Yrotation Zrotation
			JOINT Spine2
			{
				OFFSET 0.000000 10.579559 -0.000443
				CHANNELS 6 Xposition Yposition Zposition Xrotation Yrotation Zrotation
				JOINT Spine3
				{
					OFFSET 0.000000 10.567749 -0.000444
					CHANNELS 6 Xposition Yposition Zposition Xrotation Yrotation Zrotation
					JOINT LeftShoulder
					{
						OFFSET 3.218383 8.290512 0.000000
						CHANNELS 6 Xposition Yposition Zposition Xrotation Yrotation Zrotation
						JOINT LeftArm
						{
							OFFSET 15.038529 0.000000 0.000000
							CHANNELS 3 Xrotation Yrotation Zrotation
							JOINT LeftForeArm
							{
								OFFSET 32.129166 0.000000 0.000000
								CHANNELS 3 Xrotation Yrotation Zrotation
								JOINT LeftHand
								{
									OFFSET 26.275406 0.000000 0.000000
									CHANNELS 3 Xrotation Yrotation Zrotation
									End Site
									{
										OFFSET 26.275406 0.000000 0.000000
									}
								}
							}
						}
					}
					JOINT RightShoulder
					{
						OFFSET -3.218383 8.290512 0.000000
						CHANNELS 6 Xposition Yposition Zposition Xrotation Yrotation Zrotation
						JOINT RightArm
						{
							OFFSET -15.038529 0.000000 0.000000
							CHANNELS 3 Xrotation Yrotation Zrotation
							JOINT RightForeArm
							{
								OFFSET -32.129166 0.000000 0.000000
								CHANNELS 3 Xrotation Yrotation Zrotation
								JOINT RightHand
								{
									OFFSET -26.275406 0.000000 0.000000
									CHANNELS 3 Xrotation Yrotation Zrotation
									End Site
									{
										OFFSET -26.275406 0.000000 0.000000
									}
								}
							}
						}
					}
					JOINT Neck
					{
						OFFSET 0.000000 14.789474 0.000000
						CHANNELS 6 Xposition Yposition Zposition Xrotation Yrotation Zrotation
						JOINT Head
						{
							OFFSET 0.000000 9.838806 0.000953
							CHANNELS 6 Xposition Yposition Zposition Xrotation Yrotation Zrotation
							End Site
							{
								OFFSET 0.000000 9.838806 0.000000
							}
						}
					}
				}
			}
		}
	}
}
MOTION
Frames: 4
Frame Time: 0.016667
0.000000 97.420761 0.000000 -0.000000 0.000000 -0.000000 -8.571318 0.002251 -0.000250 -0.000000 0.000000 -0.000000 0.000000 -44.326080 -0.000105 -0.000000 0.000000 -0.000000 0.000000 -43.324329 -0.000176 -0.000000 0.000000 -0.000000 0.000000 -7.938133 18.050686 -0.000000 0.000000 -0.000000 8.571318 -0.000084 0.000009 -0.000000 0.000000 -0.000000 0.000000 -44.326080 -0.000105 -0.000000 0.000000 -0.000000 0.000000 -43.324329 -0.000176 -0.000000 0.000000 -0.000000 0.000000 -7.938133 18.050686 -0.000000 0.000000 -0.000000 0.000000 10.422829 -1.158092 -0.000000 0.000000 -0.000000 -0.000000 0.000000 -0.000000 0.000000 10.579559 -0.000443 -0.000000 0.000000 -0.000000 0.000000 10.567749 -0.000444 -0.000000 0.000000 -0.000000 3.218383 8.290512 0.000000 -0.000000 0.000000 -0.000000 -0.000000 0.000000 -0.000000 -0.000000 0.000000 -0.000000 -0.000000 0.000000 -0.000000 -3.218383 8.290512 0.000000 -0.000000 0.000000 -0.000000 -0.000000 0.000000 -0.000000 -0.000000 0.000000 -0.000000 -0.000000 0.000000 -0.000000 0.000000 14.789474 0.000000 -0.000000 0.000000 -0.000000 0.000000 9.838806 0.000953 -0.000000 0.000000 -0.000000 
-81.378021 10.570015 238.958038 -59.279717 56.456663 51.560412 -8.571316 0.002254 -0.000232 -103.994473 -17.992188 -1.218051 0.000022 -44.326073 -0.000101 93.302495 -0.352977 0.247040 -0.000043 -43.324326 -0.000174 25.066868 0.065106 6.377481 0.000005 -7.938128 18.050680 -0.000000 0.000000 -0.000000 8.571317 -0.000083 0.000027 -99.397530 -4.148043 4.397793 0.000011 -44.326065 -0.000100 96.396666 -0.808586 -0.892710 -0.000010 -43.324326 -0.000179 4.716389 -18.937306 -17.415700 -0.000003 -7.938130 18.050682 -0.000000 0.000002 -0.000000 0.000009 10.422830 -1.158083 11.908003 -0.059829 2.084463 -0.419421 -0.172651 0.911894 -0.000023 10.579559 -0.000447 5.286931 -0.173655 0.911714 0.000006 10.567742 -0.000437 9.686979 -0.068792 0.692811 3.218392 8.290514 -0.000001 -12.575936 -0.047953 -15.425905 29.786387 17.336734 -79.451055 16.621971 -1.878390 10.644669 10.287402 -67.586511 33.211880 -3.218379 8.290516 -0.000013 -12.867065 -4.598210 8.547920 35.920371 0.617152 69.121637 12.557625 10.045391 3.646299 28.328667 48.439609 -63.303013 0.000005 14.789473 -0.000010 12.024555 -0.595434 -1.759539 0.000005 9.838809 0.000966 -12.986888 -0.372022 -3.429633 
-83.301750 9.606842 243.613846 -61.729529 56.815566 53.907592 -8.571329 0.002249 -0.000236 -105.654858 -18.148887 -1.503791 -0.000004 -44.326084 -0.000101 93.818249 -0.327135 0.451628 -0.000022 -43.324329 -0.000172 26.752292 -0.135368 6.557659 0.000005 -7.938131 18.050686 0.000002 -0.000000 -0.000000 8.571330 -0.000073 0.000018 -100.236537 -4.156440 4.364713 0.000023 -44.326073 -0.000099 97.313776 -0.618436 -0.824301 0.000023 -43.324333 -0.000176 4.582043 -19.359142 -17.852877 0.000023 -7.938127 18.050688 -0.000001 -0.000001 -0.000000 -0.000009 10.422830 -1.158088 12.317227 -0.092529 2.198737 -0.351694 -0.197939 0.959382 0.000028 10.579557 -0.000451 5.468746 -0.198037 0.959356 -0.000011 10.567746 -0.000454 9.937488 -0.083386 0.730057 3.218357 8.290498 0.000002 -12.936014 -0.176269 -15.032958 30.697903 16.711041 -82.460498 16.622222 -1.726159 11.703552 11.201031 -69.037927 34.349718 -3.218409 8.290511 0.000002 -13.062230 -4.683383 8.505404 35.970624 1.277109 70.534107 12.764606 10.064133 3.480669 29.577168 48.934740 -64.980296 -0.000029 14.789481 0.000006 12.151557 -0.616996 -1.846422 -0.000003 9.838816 0.000954 -13.454970 -0.357491 -3.597653 
-83.521103 10.337914 243.526535 -61.709564 56.774930 53.910891 -8.571327 0.002253 -0.000252 -105.227383 -18.114034 -1.393791 0.000004 -44.326080 -0.000102 92.898844 -0.276196 0.564474 -0.000020 -43.324322 -0.000177 27.406448 -0.282843 6.641273 0.000022 -7.938131 18.050688 -0.000000 0.000001 -0.000002 8.571302 -0.000095 0.000013 -99.405187 -4.078071 4.381402 0.000001 -44.326080 -0.000102 96.607247 -0.446732 -0.775073 -0.000005 -43.324329 -0.000183 4.388532 -19.371323 -17.945895 -0.000022 -7.938135 18.050680 0.000001 0.000001 -0.000000 -0.000011 10.422831 -1.158092 12.470324 -0.124109 2.263081 -0.283779 -0.217153 0.985277 0.000008 10.579566 -0.000435 5.536650 -0.217256 0.985253 -0.000016 10.567767 -0.000449 9.988354 -0.096111 0.750692 3.218377 8.290501 -0.000009 -13.016277 -0.334004 -14.294180 31.004547 16.191855 -84.008567 16.249326 -1.609613 12.602658 10.640827 -69.387209 33.688487 -3.218384 8.290517 -0.000007 -12.983168 -4.687488 8.287928 35.494779 1.575476 70.696194 12.718157 9.884032 3.277360 29.456055 48.949015 -64.781196 -0.000007 14.789481 0.000001 12.046621 -0.622556 -1.900768 -0.000023 9.838802 0.000959 -13.649009 -0.342310 -3.698630 
